# xmcd
#
# Track frame offsets: 
#        150
#        20279
#        58490
#        100335
#        160999
#        181940
#        213289
#        249026
#
# Disc length: 3734 seconds
#
# Revision: 0
# Processed by: cddbd v1.5.2PL0 Copyright (c) Steve Scherf et al.
# Submitted via: ExactAudioCopy v1.1
#
DISCID=630e9408
DTITLE=VICTOR WAINWRIGHT - FAMILY ROOTS
DYEAR=2013
DGENRE=
TTITLE0=Buzz Me
TTITLE1=Minnie the Moocher
TTITLE2=Bo Diddley
TTITLE3=Get Behind the Mule
TTITLE4=Wine Spodie Odie
TTITLE5=Rubies and Diamonds
TTITLE6=Gospel Medley
TTITLE7=Same Old Blues (Live from the 2013 BMAs)
EXTD=
EXTT0=
EXTT1=
EXTT2=
EXTT3=
EXTT4=
EXTT5=
EXTT6=
EXTT7=
PLAYORDER=
